{
 "cells": [
  {
   "cell_type": "code",
   "execution_count": 1,
   "metadata": {},
   "outputs": [
    {
     "name": "stderr",
     "output_type": "stream",
     "text": [
      "ffmpeg version 6.1.1-3ubuntu5 Copyright (c) 2000-2023 the FFmpeg developers\n",
      "  built with gcc 13 (Ubuntu 13.2.0-23ubuntu3)\n",
      "  configuration: --prefix=/usr --extra-version=3ubuntu5 --toolchain=hardened --libdir=/usr/lib/x86_64-linux-gnu --incdir=/usr/include/x86_64-linux-gnu --arch=amd64 --enable-gpl --disable-stripping --disable-omx --enable-gnutls --enable-libaom --enable-libass --enable-libbs2b --enable-libcaca --enable-libcdio --enable-libcodec2 --enable-libdav1d --enable-libflite --enable-libfontconfig --enable-libfreetype --enable-libfribidi --enable-libglslang --enable-libgme --enable-libgsm --enable-libharfbuzz --enable-libmp3lame --enable-libmysofa --enable-libopenjpeg --enable-libopenmpt --enable-libopus --enable-librubberband --enable-libshine --enable-libsnappy --enable-libsoxr --enable-libspeex --enable-libtheora --enable-libtwolame --enable-libvidstab --enable-libvorbis --enable-libvpx --enable-libwebp --enable-libx265 --enable-libxml2 --enable-libxvid --enable-libzimg --enable-openal --enable-opencl --enable-opengl --disable-sndio --enable-libvpl --disable-libmfx --enable-libdc1394 --enable-libdrm --enable-libiec61883 --enable-chromaprint --enable-frei0r --enable-ladspa --enable-libbluray --enable-libjack --enable-libpulse --enable-librabbitmq --enable-librist --enable-libsrt --enable-libssh --enable-libsvtav1 --enable-libx264 --enable-libzmq --enable-libzvbi --enable-lv2 --enable-sdl2 --enable-libplacebo --enable-librav1e --enable-pocketsphinx --enable-librsvg --enable-libjxl --enable-shared\n",
      "  libavutil      58. 29.100 / 58. 29.100\n",
      "  libavcodec     60. 31.102 / 60. 31.102\n",
      "  libavformat    60. 16.100 / 60. 16.100\n",
      "  libavdevice    60.  3.100 / 60.  3.100\n",
      "  libavfilter     9. 12.100 /  9. 12.100\n",
      "  libswscale      7.  5.100 /  7.  5.100\n",
      "  libswresample   4. 12.100 /  4. 12.100\n",
      "  libpostproc    57.  3.100 / 57.  3.100\n",
      "Input #0, mov,mp4,m4a,3gp,3g2,mj2, from '/tmp/tmp52ux3_0d.mp4':\n",
      "  Metadata:\n",
      "    major_brand     : isom\n",
      "    minor_version   : 512\n",
      "    compatible_brands: isomiso2avc1mp41\n",
      "    encoder         : Lavf60.16.100\n",
      "  Duration: 00:00:10.10, start: 0.000000, bitrate: 3781 kb/s\n",
      "  Stream #0:0[0x1](und): Video: h264 (High) (avc1 / 0x31637661), yuv420p(progressive), 1400x1000, 3779 kb/s, 10 fps, 10 tbr, 10240 tbn (default)\n",
      "    Metadata:\n",
      "      handler_name    : VideoHandler\n",
      "      vendor_id       : [0][0][0][0]\n",
      "      encoder         : Lavc60.31.102 libx264\n",
      "Output #0, mp4, to 'frft_video_10k_real.mp4':\n",
      "  Metadata:\n",
      "    major_brand     : isom\n",
      "    minor_version   : 512\n",
      "    compatible_brands: isomiso2avc1mp41\n",
      "    encoder         : Lavf60.16.100\n",
      "  Stream #0:0(und): Video: h264 (High) (avc1 / 0x31637661), yuv420p(progressive), 1400x1000, q=2-31, 3779 kb/s, 10 fps, 10 tbr, 10240 tbn (default)\n",
      "    Metadata:\n",
      "      handler_name    : VideoHandler\n",
      "      vendor_id       : [0][0][0][0]\n",
      "      encoder         : Lavc60.31.102 libx264\n",
      "Stream mapping:\n",
      "  Stream #0:0 -> #0:0 (copy)\n",
      "Press [q] to stop, [?] for help\n",
      "[out#0/mp4 @ 0x59d36d189dc0] video:4660kB audio:0kB subtitle:0kB other streams:0kB global headers:0kB muxing overhead: 0.041995%\n",
      "size=    4662kB time=00:00:09.80 bitrate=3897.1kbits/s speed=3.92e+03x    \n",
      "ffmpeg version 6.1.1-3ubuntu5 Copyright (c) 2000-2023 the FFmpeg developers\n",
      "  built with gcc 13 (Ubuntu 13.2.0-23ubuntu3)\n",
      "  configuration: --prefix=/usr --extra-version=3ubuntu5 --toolchain=hardened --libdir=/usr/lib/x86_64-linux-gnu --incdir=/usr/include/x86_64-linux-gnu --arch=amd64 --enable-gpl --disable-stripping --disable-omx --enable-gnutls --enable-libaom --enable-libass --enable-libbs2b --enable-libcaca --enable-libcdio --enable-libcodec2 --enable-libdav1d --enable-libflite --enable-libfontconfig --enable-libfreetype --enable-libfribidi --enable-libglslang --enable-libgme --enable-libgsm --enable-libharfbuzz --enable-libmp3lame --enable-libmysofa --enable-libopenjpeg --enable-libopenmpt --enable-libopus --enable-librubberband --enable-libshine --enable-libsnappy --enable-libsoxr --enable-libspeex --enable-libtheora --enable-libtwolame --enable-libvidstab --enable-libvorbis --enable-libvpx --enable-libwebp --enable-libx265 --enable-libxml2 --enable-libxvid --enable-libzimg --enable-openal --enable-opencl --enable-opengl --disable-sndio --enable-libvpl --disable-libmfx --enable-libdc1394 --enable-libdrm --enable-libiec61883 --enable-chromaprint --enable-frei0r --enable-ladspa --enable-libbluray --enable-libjack --enable-libpulse --enable-librabbitmq --enable-librist --enable-libsrt --enable-libssh --enable-libsvtav1 --enable-libx264 --enable-libzmq --enable-libzvbi --enable-lv2 --enable-sdl2 --enable-libplacebo --enable-librav1e --enable-pocketsphinx --enable-librsvg --enable-libjxl --enable-shared\n",
      "  libavutil      58. 29.100 / 58. 29.100\n",
      "  libavcodec     60. 31.102 / 60. 31.102\n",
      "  libavformat    60. 16.100 / 60. 16.100\n",
      "  libavdevice    60.  3.100 / 60.  3.100\n",
      "  libavfilter     9. 12.100 /  9. 12.100\n",
      "  libswscale      7.  5.100 /  7.  5.100\n",
      "  libswresample   4. 12.100 /  4. 12.100\n",
      "  libpostproc    57.  3.100 / 57.  3.100\n",
      "Input #0, mov,mp4,m4a,3gp,3g2,mj2, from '/tmp/tmp5l708jp_.mp4':\n",
      "  Metadata:\n",
      "    major_brand     : isom\n",
      "    minor_version   : 512\n",
      "    compatible_brands: isomiso2avc1mp41\n",
      "    encoder         : Lavf60.16.100\n",
      "  Duration: 00:00:10.10, start: 0.000000, bitrate: 4019 kb/s\n",
      "  Stream #0:0[0x1](und): Video: h264 (High) (avc1 / 0x31637661), yuv420p(progressive), 1400x1000, 4017 kb/s, 10 fps, 10 tbr, 10240 tbn (default)\n",
      "    Metadata:\n",
      "      handler_name    : VideoHandler\n",
      "      vendor_id       : [0][0][0][0]\n",
      "      encoder         : Lavc60.31.102 libx264\n",
      "Output #0, mp4, to 'frft_video_10k_full.mp4':\n",
      "  Metadata:\n",
      "    major_brand     : isom\n",
      "    minor_version   : 512\n",
      "    compatible_brands: isomiso2avc1mp41\n",
      "    encoder         : Lavf60.16.100\n",
      "  Stream #0:0(und): Video: h264 (High) (avc1 / 0x31637661), yuv420p(progressive), 1400x1000, q=2-31, 4017 kb/s, 10 fps, 10 tbr, 10240 tbn (default)\n",
      "    Metadata:\n",
      "      handler_name    : VideoHandler\n",
      "      vendor_id       : [0][0][0][0]\n",
      "      encoder         : Lavc60.31.102 libx264\n",
      "Stream mapping:\n",
      "  Stream #0:0 -> #0:0 (copy)\n",
      "Press [q] to stop, [?] for help\n",
      "[out#0/mp4 @ 0x6446a01e2e00] video:4953kB audio:0kB subtitle:0kB other streams:0kB global headers:0kB muxing overhead: 0.040851%\n",
      "size=    4955kB time=00:00:09.80 bitrate=4142.1kbits/s speed=3.97e+03x    \n",
      "ffmpeg version 6.1.1-3ubuntu5 Copyright (c) 2000-2023 the FFmpeg developers\n",
      "  built with gcc 13 (Ubuntu 13.2.0-23ubuntu3)\n",
      "  configuration: --prefix=/usr --extra-version=3ubuntu5 --toolchain=hardened --libdir=/usr/lib/x86_64-linux-gnu --incdir=/usr/include/x86_64-linux-gnu --arch=amd64 --enable-gpl --disable-stripping --disable-omx --enable-gnutls --enable-libaom --enable-libass --enable-libbs2b --enable-libcaca --enable-libcdio --enable-libcodec2 --enable-libdav1d --enable-libflite --enable-libfontconfig --enable-libfreetype --enable-libfribidi --enable-libglslang --enable-libgme --enable-libgsm --enable-libharfbuzz --enable-libmp3lame --enable-libmysofa --enable-libopenjpeg --enable-libopenmpt --enable-libopus --enable-librubberband --enable-libshine --enable-libsnappy --enable-libsoxr --enable-libspeex --enable-libtheora --enable-libtwolame --enable-libvidstab --enable-libvorbis --enable-libvpx --enable-libwebp --enable-libx265 --enable-libxml2 --enable-libxvid --enable-libzimg --enable-openal --enable-opencl --enable-opengl --disable-sndio --enable-libvpl --disable-libmfx --enable-libdc1394 --enable-libdrm --enable-libiec61883 --enable-chromaprint --enable-frei0r --enable-ladspa --enable-libbluray --enable-libjack --enable-libpulse --enable-librabbitmq --enable-librist --enable-libsrt --enable-libssh --enable-libsvtav1 --enable-libx264 --enable-libzmq --enable-libzvbi --enable-lv2 --enable-sdl2 --enable-libplacebo --enable-librav1e --enable-pocketsphinx --enable-librsvg --enable-libjxl --enable-shared\n",
      "  libavutil      58. 29.100 / 58. 29.100\n",
      "  libavcodec     60. 31.102 / 60. 31.102\n",
      "  libavformat    60. 16.100 / 60. 16.100\n",
      "  libavdevice    60.  3.100 / 60.  3.100\n",
      "  libavfilter     9. 12.100 /  9. 12.100\n",
      "  libswscale      7.  5.100 /  7.  5.100\n",
      "  libswresample   4. 12.100 /  4. 12.100\n",
      "  libpostproc    57.  3.100 / 57.  3.100\n",
      "Input #0, mov,mp4,m4a,3gp,3g2,mj2, from '/tmp/tmpfl894uv4.mp4':\n",
      "  Metadata:\n",
      "    major_brand     : isom\n",
      "    minor_version   : 512\n",
      "    compatible_brands: isomiso2avc1mp41\n",
      "    encoder         : Lavf60.16.100\n",
      "  Duration: 00:00:10.10, start: 0.000000, bitrate: 3769 kb/s\n",
      "  Stream #0:0[0x1](und): Video: h264 (High) (avc1 / 0x31637661), yuv420p(progressive), 1400x1000, 3768 kb/s, 10 fps, 10 tbr, 10240 tbn (default)\n",
      "    Metadata:\n",
      "      handler_name    : VideoHandler\n",
      "      vendor_id       : [0][0][0][0]\n",
      "      encoder         : Lavc60.31.102 libx264\n",
      "Output #0, mp4, to 'frft_video_5k_real.mp4':\n",
      "  Metadata:\n",
      "    major_brand     : isom\n",
      "    minor_version   : 512\n",
      "    compatible_brands: isomiso2avc1mp41\n",
      "    encoder         : Lavf60.16.100\n",
      "  Stream #0:0(und): Video: h264 (High) (avc1 / 0x31637661), yuv420p(progressive), 1400x1000, q=2-31, 3768 kb/s, 10 fps, 10 tbr, 10240 tbn (default)\n",
      "    Metadata:\n",
      "      handler_name    : VideoHandler\n",
      "      vendor_id       : [0][0][0][0]\n",
      "      encoder         : Lavc60.31.102 libx264\n",
      "Stream mapping:\n",
      "  Stream #0:0 -> #0:0 (copy)\n",
      "Press [q] to stop, [?] for help\n",
      "[out#0/mp4 @ 0x57a937566e00] video:4646kB audio:0kB subtitle:0kB other streams:0kB global headers:0kB muxing overhead: 0.041872%\n",
      "size=    4648kB time=00:00:09.80 bitrate=3885.2kbits/s speed=4.62e+03x    \n",
      "ffmpeg version 6.1.1-3ubuntu5 Copyright (c) 2000-2023 the FFmpeg developers\n",
      "  built with gcc 13 (Ubuntu 13.2.0-23ubuntu3)\n",
      "  configuration: --prefix=/usr --extra-version=3ubuntu5 --toolchain=hardened --libdir=/usr/lib/x86_64-linux-gnu --incdir=/usr/include/x86_64-linux-gnu --arch=amd64 --enable-gpl --disable-stripping --disable-omx --enable-gnutls --enable-libaom --enable-libass --enable-libbs2b --enable-libcaca --enable-libcdio --enable-libcodec2 --enable-libdav1d --enable-libflite --enable-libfontconfig --enable-libfreetype --enable-libfribidi --enable-libglslang --enable-libgme --enable-libgsm --enable-libharfbuzz --enable-libmp3lame --enable-libmysofa --enable-libopenjpeg --enable-libopenmpt --enable-libopus --enable-librubberband --enable-libshine --enable-libsnappy --enable-libsoxr --enable-libspeex --enable-libtheora --enable-libtwolame --enable-libvidstab --enable-libvorbis --enable-libvpx --enable-libwebp --enable-libx265 --enable-libxml2 --enable-libxvid --enable-libzimg --enable-openal --enable-opencl --enable-opengl --disable-sndio --enable-libvpl --disable-libmfx --enable-libdc1394 --enable-libdrm --enable-libiec61883 --enable-chromaprint --enable-frei0r --enable-ladspa --enable-libbluray --enable-libjack --enable-libpulse --enable-librabbitmq --enable-librist --enable-libsrt --enable-libssh --enable-libsvtav1 --enable-libx264 --enable-libzmq --enable-libzvbi --enable-lv2 --enable-sdl2 --enable-libplacebo --enable-librav1e --enable-pocketsphinx --enable-librsvg --enable-libjxl --enable-shared\n",
      "  libavutil      58. 29.100 / 58. 29.100\n",
      "  libavcodec     60. 31.102 / 60. 31.102\n",
      "  libavformat    60. 16.100 / 60. 16.100\n",
      "  libavdevice    60.  3.100 / 60.  3.100\n",
      "  libavfilter     9. 12.100 /  9. 12.100\n",
      "  libswscale      7.  5.100 /  7.  5.100\n",
      "  libswresample   4. 12.100 /  4. 12.100\n",
      "  libpostproc    57.  3.100 / 57.  3.100\n",
      "Input #0, mov,mp4,m4a,3gp,3g2,mj2, from '/tmp/tmplf1086rw.mp4':\n",
      "  Metadata:\n",
      "    major_brand     : isom\n",
      "    minor_version   : 512\n",
      "    compatible_brands: isomiso2avc1mp41\n",
      "    encoder         : Lavf60.16.100\n",
      "  Duration: 00:00:10.10, start: 0.000000, bitrate: 3864 kb/s\n",
      "  Stream #0:0[0x1](und): Video: h264 (High) (avc1 / 0x31637661), yuv420p(progressive), 1400x1000, 3862 kb/s, 10 fps, 10 tbr, 10240 tbn (default)\n",
      "    Metadata:\n",
      "      handler_name    : VideoHandler\n",
      "      vendor_id       : [0][0][0][0]\n",
      "      encoder         : Lavc60.31.102 libx264\n",
      "Output #0, mp4, to 'frft_video_5k_full.mp4':\n",
      "  Metadata:\n",
      "    major_brand     : isom\n",
      "    minor_version   : 512\n",
      "    compatible_brands: isomiso2avc1mp41\n",
      "    encoder         : Lavf60.16.100\n",
      "  Stream #0:0(und): Video: h264 (High) (avc1 / 0x31637661), yuv420p(progressive), 1400x1000, q=2-31, 3862 kb/s, 10 fps, 10 tbr, 10240 tbn (default)\n",
      "    Metadata:\n",
      "      handler_name    : VideoHandler\n",
      "      vendor_id       : [0][0][0][0]\n",
      "      encoder         : Lavc60.31.102 libx264\n",
      "Stream mapping:\n",
      "  Stream #0:0 -> #0:0 (copy)\n",
      "Press [q] to stop, [?] for help\n",
      "[out#0/mp4 @ 0x59cd85304e00] video:4762kB audio:0kB subtitle:0kB other streams:0kB global headers:0kB muxing overhead: 0.042570%\n",
      "size=    4764kB time=00:00:09.80 bitrate=3982.6kbits/s speed=4.86e+03x    \n"
     ]
    }
   ],
   "source": [
    "import numpy as np\n",
    "import matplotlib.pyplot as plt\n",
    "import torch\n",
    "from   auxiliar import frft_windowed\n",
    "import matplotlib.animation as animation\n",
    "import tempfile\n",
    "import subprocess\n",
    "import os\n",
    "\n",
    "def create_frft_video(signal, sample_rate, complex_part, win_size, num_frames, output_video):\n",
    "    fig, ax = plt.subplots(figsize=(14, 10))\n",
    "    plt.ioff()  # Turn off interactive mode\n",
    "    alpha_values = np.linspace(0, 1, num_frames)\n",
    "    \n",
    "    def generate_frame(alpha):\n",
    "        frft_temp = frft_windowed(signal, win_size, win_size, alpha, complex_part, window_type_input=\"rectangular\", window_type_output=\"rectangular\")\n",
    "        ax.clear()\n",
    "        ax.specgram(frft_temp.cpu().numpy(), NFFT=4096, Fs=sample_rate, noverlap=int(4096 * 0.95), window=np.blackman(4096), cmap='YlOrRd_r')\n",
    "        ax.set_ylim(20, 22050)\n",
    "        # ax.set_xlim(0, len(signal) / (2*sample_rate))\n",
    "        ax.set_title(f\"Angle = {alpha:.2f}\")\n",
    "        return ax\n",
    "\n",
    "    def update_frame(i):\n",
    "        generate_frame(alpha_values[i])\n",
    "        return ax\n",
    "    \n",
    "    ani = animation.FuncAnimation(fig, update_frame, frames=num_frames, blit=False)\n",
    "    \n",
    "    temp_video_file = tempfile.NamedTemporaryFile(suffix='.mp4', delete=False).name\n",
    "    \n",
    "    ani.save(temp_video_file, writer='ffmpeg', fps=10)\n",
    "    plt.close(fig)\n",
    "\n",
    "    # Combine the video with audio using ffmpeg (audio part is optional and requires audio signal)\n",
    "    if os.path.exists(output_video):\n",
    "        os.remove(output_video)\n",
    "    command = [\n",
    "        'ffmpeg',\n",
    "        '-i', temp_video_file,\n",
    "        '-c:v', 'copy',\n",
    "        output_video\n",
    "    ]\n",
    "    subprocess.run(command, check=True)\n",
    "\n",
    "    # Clean up temporary files\n",
    "    if os.path.exists(temp_video_file):\n",
    "        os.remove(temp_video_file)\n",
    "\n",
    "#device\n",
    "device = torch.device('cuda' if torch.cuda.is_available() else 'cpu')\n",
    "\n",
    "# Example usage\n",
    "fs = 44100\n",
    "win_size = 2**16\n",
    "time = np.arange(0, win_size) / fs\n",
    "sinusoid = np.sin(2 * np.pi * 10025 * time)\n",
    "sinusoid_tensor = torch.tensor(sinusoid).to(device)\n",
    "\n",
    "create_frft_video(sinusoid_tensor, fs, \"real_part\", win_size, 101, 'frft_video_10k_real.mp4')\n",
    "create_frft_video(sinusoid_tensor, fs, \"full\", win_size, 101,      'frft_video_10k_full.mp4')\n",
    "\n",
    "# Example usage\n",
    "fs = 44100\n",
    "win_size = 2**16\n",
    "time = np.arange(0, win_size) / fs\n",
    "sinusoid = np.sin(2 * np.pi * 5012.5 * time)\n",
    "sinusoid_tensor = torch.tensor(sinusoid).to(device)\n",
    "\n",
    "create_frft_video(sinusoid_tensor, fs, \"real_part\", win_size, 101, 'frft_video_5k_real.mp4')\n",
    "create_frft_video(sinusoid_tensor, fs, \"full\", win_size,      101, 'frft_video_5k_full.mp4')"
   ]
  }
 ],
 "metadata": {
  "kernelspec": {
   "display_name": "frft_venv",
   "language": "python",
   "name": "python3"
  },
  "language_info": {
   "codemirror_mode": {
    "name": "ipython",
    "version": 3
   },
   "file_extension": ".py",
   "mimetype": "text/x-python",
   "name": "python",
   "nbconvert_exporter": "python",
   "pygments_lexer": "ipython3",
   "version": "3.11.11"
  }
 },
 "nbformat": 4,
 "nbformat_minor": 2
}
